<mxfile host="Electron" agent="Mozilla/5.0 (Windows NT 10.0; Win64; x64) AppleWebKit/537.36 (KHTML, like Gecko) draw.io/24.7.17 Chrome/128.0.6613.36 Electron/32.0.1 Safari/537.36" version="24.7.17">
  <diagram id="R2lEEEUBdFMjLlhIrx00" name="Page-1">
    <mxGraphModel dx="1257" dy="760" grid="1" gridSize="10" guides="1" tooltips="1" connect="1" arrows="1" fold="1" page="1" pageScale="1" pageWidth="2336" pageHeight="1654" math="0" shadow="0" extFonts="Permanent Marker^https://fonts.googleapis.com/css?family=Permanent+Marker">
      <root>
        <mxCell id="0" />
        <mxCell id="1" parent="0" />
        <mxCell id="v3IGhkPPJmsEX30BA1BG-1" value="Sede" style="whiteSpace=wrap;html=1;align=center;" parent="1" vertex="1">
          <mxGeometry x="510" y="360" width="100" height="40" as="geometry" />
        </mxCell>
        <mxCell id="v3IGhkPPJmsEX30BA1BG-2" value="Empleados" style="whiteSpace=wrap;html=1;align=center;" parent="1" vertex="1">
          <mxGeometry x="130" y="360" width="100" height="40" as="geometry" />
        </mxCell>
        <mxCell id="v3IGhkPPJmsEX30BA1BG-3" value="&lt;font style=&quot;font-size: 12px;&quot;&gt;Pertenecer&lt;/font&gt;" style="shape=rhombus;perimeter=rhombusPerimeter;whiteSpace=wrap;html=1;align=center;" parent="1" vertex="1">
          <mxGeometry x="280" y="355" width="80" height="50" as="geometry" />
        </mxCell>
        <mxCell id="v3IGhkPPJmsEX30BA1BG-5" value="" style="endArrow=none;html=1;rounded=0;exitX=1;exitY=0.5;exitDx=0;exitDy=0;entryX=0;entryY=0.5;entryDx=0;entryDy=0;" parent="1" source="v3IGhkPPJmsEX30BA1BG-2" target="v3IGhkPPJmsEX30BA1BG-3" edge="1">
          <mxGeometry relative="1" as="geometry">
            <mxPoint x="320" y="380" as="sourcePoint" />
            <mxPoint x="480" y="380" as="targetPoint" />
          </mxGeometry>
        </mxCell>
        <mxCell id="v3IGhkPPJmsEX30BA1BG-6" value="" style="endArrow=none;html=1;rounded=0;entryX=0;entryY=0.5;entryDx=0;entryDy=0;" parent="1" source="v3IGhkPPJmsEX30BA1BG-3" target="v3IGhkPPJmsEX30BA1BG-1" edge="1">
          <mxGeometry relative="1" as="geometry">
            <mxPoint x="520" y="400" as="sourcePoint" />
            <mxPoint x="530" y="410" as="targetPoint" />
          </mxGeometry>
        </mxCell>
        <mxCell id="v3IGhkPPJmsEX30BA1BG-7" value="1:N" style="text;html=1;align=center;verticalAlign=middle;resizable=0;points=[];autosize=1;strokeColor=none;fillColor=none;" parent="1" vertex="1">
          <mxGeometry x="230" y="355" width="40" height="30" as="geometry" />
        </mxCell>
        <mxCell id="v3IGhkPPJmsEX30BA1BG-8" value="1:1" style="text;html=1;align=center;verticalAlign=middle;resizable=0;points=[];autosize=1;strokeColor=none;fillColor=none;" parent="1" vertex="1">
          <mxGeometry x="470" y="355" width="40" height="30" as="geometry" />
        </mxCell>
        <mxCell id="v3IGhkPPJmsEX30BA1BG-9" value="" style="triangle;whiteSpace=wrap;html=1;rotation=-90;" parent="1" vertex="1">
          <mxGeometry x="170" y="440" width="20" height="30" as="geometry" />
        </mxCell>
        <mxCell id="v3IGhkPPJmsEX30BA1BG-10" value="" style="endArrow=none;html=1;rounded=0;exitX=1;exitY=0.5;exitDx=0;exitDy=0;entryX=0.5;entryY=1;entryDx=0;entryDy=0;" parent="1" source="v3IGhkPPJmsEX30BA1BG-9" target="v3IGhkPPJmsEX30BA1BG-2" edge="1">
          <mxGeometry width="50" height="50" relative="1" as="geometry">
            <mxPoint x="370" y="410" as="sourcePoint" />
            <mxPoint x="190" y="420" as="targetPoint" />
          </mxGeometry>
        </mxCell>
        <mxCell id="v3IGhkPPJmsEX30BA1BG-11" value="" style="endArrow=none;html=1;rounded=0;" parent="1" edge="1">
          <mxGeometry width="50" height="50" relative="1" as="geometry">
            <mxPoint x="40" y="490" as="sourcePoint" />
            <mxPoint x="290" y="490" as="targetPoint" />
          </mxGeometry>
        </mxCell>
        <mxCell id="v3IGhkPPJmsEX30BA1BG-12" value="" style="endArrow=none;html=1;rounded=0;exitX=0;exitY=0.5;exitDx=0;exitDy=0;" parent="1" source="v3IGhkPPJmsEX30BA1BG-9" edge="1">
          <mxGeometry width="50" height="50" relative="1" as="geometry">
            <mxPoint x="370" y="410" as="sourcePoint" />
            <mxPoint x="180" y="490" as="targetPoint" />
          </mxGeometry>
        </mxCell>
        <mxCell id="v3IGhkPPJmsEX30BA1BG-13" value="Tec. Manten" style="whiteSpace=wrap;html=1;align=center;" parent="1" vertex="1">
          <mxGeometry x="240" y="520" width="80" height="30" as="geometry" />
        </mxCell>
        <mxCell id="v3IGhkPPJmsEX30BA1BG-14" value="Monitores" style="whiteSpace=wrap;html=1;align=center;" parent="1" vertex="1">
          <mxGeometry x="170" y="520" width="60" height="30" as="geometry" />
        </mxCell>
        <mxCell id="v3IGhkPPJmsEX30BA1BG-15" value="Comerciales" style="whiteSpace=wrap;html=1;align=center;" parent="1" vertex="1">
          <mxGeometry x="90" y="520" width="70" height="30" as="geometry" />
        </mxCell>
        <mxCell id="v3IGhkPPJmsEX30BA1BG-16" value="Administrativos" style="whiteSpace=wrap;html=1;align=center;" parent="1" vertex="1">
          <mxGeometry y="520" width="80" height="30" as="geometry" />
        </mxCell>
        <mxCell id="v3IGhkPPJmsEX30BA1BG-17" value="" style="endArrow=none;html=1;rounded=0;edgeStyle=orthogonalEdgeStyle;curved=1;" parent="1" edge="1">
          <mxGeometry relative="1" as="geometry">
            <mxPoint x="80" y="420" as="sourcePoint" />
            <mxPoint x="260" y="410" as="targetPoint" />
            <Array as="points">
              <mxPoint x="80" y="421" />
              <mxPoint x="261" y="421" />
            </Array>
          </mxGeometry>
        </mxCell>
        <mxCell id="v3IGhkPPJmsEX30BA1BG-18" value="" style="endArrow=none;html=1;rounded=0;entryX=0.625;entryY=0.1;entryDx=0;entryDy=0;entryPerimeter=0;" parent="1" target="v3IGhkPPJmsEX30BA1BG-13" edge="1">
          <mxGeometry relative="1" as="geometry">
            <mxPoint x="290" y="490" as="sourcePoint" />
            <mxPoint x="480" y="380" as="targetPoint" />
          </mxGeometry>
        </mxCell>
        <mxCell id="v3IGhkPPJmsEX30BA1BG-19" value="" style="endArrow=none;html=1;rounded=0;entryX=0.5;entryY=0;entryDx=0;entryDy=0;" parent="1" target="v3IGhkPPJmsEX30BA1BG-14" edge="1">
          <mxGeometry relative="1" as="geometry">
            <mxPoint x="200" y="490" as="sourcePoint" />
            <mxPoint x="480" y="380" as="targetPoint" />
          </mxGeometry>
        </mxCell>
        <mxCell id="v3IGhkPPJmsEX30BA1BG-20" value="" style="endArrow=none;html=1;rounded=0;exitX=0.5;exitY=0;exitDx=0;exitDy=0;" parent="1" source="v3IGhkPPJmsEX30BA1BG-16" edge="1">
          <mxGeometry relative="1" as="geometry">
            <mxPoint x="320" y="380" as="sourcePoint" />
            <mxPoint x="40" y="490" as="targetPoint" />
          </mxGeometry>
        </mxCell>
        <mxCell id="v3IGhkPPJmsEX30BA1BG-21" value="" style="endArrow=none;html=1;rounded=0;entryX=0.5;entryY=0;entryDx=0;entryDy=0;" parent="1" target="v3IGhkPPJmsEX30BA1BG-15" edge="1">
          <mxGeometry relative="1" as="geometry">
            <mxPoint x="125" y="490" as="sourcePoint" />
            <mxPoint x="480" y="380" as="targetPoint" />
          </mxGeometry>
        </mxCell>
        <mxCell id="v3IGhkPPJmsEX30BA1BG-25" value="Localidad" style="whiteSpace=wrap;html=1;align=center;" parent="1" vertex="1">
          <mxGeometry x="720" y="200" width="100" height="40" as="geometry" />
        </mxCell>
        <mxCell id="v3IGhkPPJmsEX30BA1BG-26" value="Ubicar" style="shape=rhombus;perimeter=rhombusPerimeter;whiteSpace=wrap;html=1;align=center;" parent="1" vertex="1">
          <mxGeometry x="515" y="200" width="90" height="40" as="geometry" />
        </mxCell>
        <mxCell id="D8C9LuhSPpIgvyYXJX8X-1" value="Provincia" style="whiteSpace=wrap;html=1;align=center;" parent="1" vertex="1">
          <mxGeometry x="980" y="200" width="100" height="40" as="geometry" />
        </mxCell>
        <mxCell id="D8C9LuhSPpIgvyYXJX8X-2" value="Pertenecer" style="shape=rhombus;perimeter=rhombusPerimeter;whiteSpace=wrap;html=1;align=center;" parent="1" vertex="1">
          <mxGeometry x="860" y="200" width="80" height="40" as="geometry" />
        </mxCell>
        <mxCell id="D8C9LuhSPpIgvyYXJX8X-4" value="" style="endArrow=none;html=1;rounded=0;exitX=0;exitY=0.5;exitDx=0;exitDy=0;entryX=1;entryY=0.5;entryDx=0;entryDy=0;" parent="1" source="v3IGhkPPJmsEX30BA1BG-25" target="v3IGhkPPJmsEX30BA1BG-26" edge="1">
          <mxGeometry relative="1" as="geometry">
            <mxPoint x="650" y="340" as="sourcePoint" />
            <mxPoint x="810" y="340" as="targetPoint" />
          </mxGeometry>
        </mxCell>
        <mxCell id="D8C9LuhSPpIgvyYXJX8X-5" value="" style="endArrow=none;html=1;rounded=0;exitX=1;exitY=0.5;exitDx=0;exitDy=0;entryX=0;entryY=0.5;entryDx=0;entryDy=0;" parent="1" source="D8C9LuhSPpIgvyYXJX8X-2" target="D8C9LuhSPpIgvyYXJX8X-1" edge="1">
          <mxGeometry relative="1" as="geometry">
            <mxPoint x="650" y="340" as="sourcePoint" />
            <mxPoint x="810" y="340" as="targetPoint" />
          </mxGeometry>
        </mxCell>
        <mxCell id="D8C9LuhSPpIgvyYXJX8X-6" value="" style="endArrow=none;html=1;rounded=0;exitX=1;exitY=0.5;exitDx=0;exitDy=0;entryX=0;entryY=0.5;entryDx=0;entryDy=0;" parent="1" source="v3IGhkPPJmsEX30BA1BG-25" target="D8C9LuhSPpIgvyYXJX8X-2" edge="1">
          <mxGeometry relative="1" as="geometry">
            <mxPoint x="650" y="340" as="sourcePoint" />
            <mxPoint x="810" y="340" as="targetPoint" />
          </mxGeometry>
        </mxCell>
        <mxCell id="D8C9LuhSPpIgvyYXJX8X-7" value="" style="endArrow=none;html=1;rounded=0;exitX=0.5;exitY=1;exitDx=0;exitDy=0;entryX=0.5;entryY=0;entryDx=0;entryDy=0;" parent="1" source="v3IGhkPPJmsEX30BA1BG-26" target="v3IGhkPPJmsEX30BA1BG-1" edge="1">
          <mxGeometry relative="1" as="geometry">
            <mxPoint x="600" y="340" as="sourcePoint" />
            <mxPoint x="760" y="340" as="targetPoint" />
          </mxGeometry>
        </mxCell>
        <mxCell id="D8C9LuhSPpIgvyYXJX8X-8" value="1:1" style="text;html=1;align=center;verticalAlign=middle;resizable=0;points=[];autosize=1;strokeColor=none;fillColor=none;" parent="1" vertex="1">
          <mxGeometry x="560" y="330" width="40" height="30" as="geometry" />
        </mxCell>
        <mxCell id="D8C9LuhSPpIgvyYXJX8X-9" value="1:1" style="text;html=1;align=center;verticalAlign=middle;resizable=0;points=[];autosize=1;strokeColor=none;fillColor=none;" parent="1" vertex="1">
          <mxGeometry x="680" y="220" width="40" height="30" as="geometry" />
        </mxCell>
        <mxCell id="D8C9LuhSPpIgvyYXJX8X-10" value="1:N" style="text;html=1;align=center;verticalAlign=middle;resizable=0;points=[];autosize=1;strokeColor=none;fillColor=none;" parent="1" vertex="1">
          <mxGeometry x="820" y="190" width="40" height="30" as="geometry" />
        </mxCell>
        <mxCell id="D8C9LuhSPpIgvyYXJX8X-11" value="1:1" style="text;html=1;align=center;verticalAlign=middle;resizable=0;points=[];autosize=1;strokeColor=none;fillColor=none;" parent="1" vertex="1">
          <mxGeometry x="940" y="190" width="40" height="30" as="geometry" />
        </mxCell>
        <mxCell id="D8C9LuhSPpIgvyYXJX8X-12" value="1:N" style="text;html=1;align=center;verticalAlign=middle;resizable=0;points=[];autosize=1;strokeColor=none;fillColor=none;" parent="1" vertex="1">
          <mxGeometry x="40" y="490" width="40" height="30" as="geometry" />
        </mxCell>
        <mxCell id="D8C9LuhSPpIgvyYXJX8X-13" value="1:N" style="text;html=1;align=center;verticalAlign=middle;resizable=0;points=[];autosize=1;strokeColor=none;fillColor=none;" parent="1" vertex="1">
          <mxGeometry x="120" y="490" width="40" height="30" as="geometry" />
        </mxCell>
        <mxCell id="D8C9LuhSPpIgvyYXJX8X-14" value="1:N" style="text;html=1;align=center;verticalAlign=middle;resizable=0;points=[];autosize=1;strokeColor=none;fillColor=none;" parent="1" vertex="1">
          <mxGeometry x="200" y="490" width="40" height="30" as="geometry" />
        </mxCell>
        <mxCell id="D8C9LuhSPpIgvyYXJX8X-15" value="1:N" style="text;html=1;align=center;verticalAlign=middle;resizable=0;points=[];autosize=1;strokeColor=none;fillColor=none;" parent="1" vertex="1">
          <mxGeometry x="290" y="490" width="40" height="30" as="geometry" />
        </mxCell>
        <mxCell id="D8C9LuhSPpIgvyYXJX8X-16" value="Paquetes" style="whiteSpace=wrap;html=1;align=center;" parent="1" vertex="1">
          <mxGeometry x="680" y="520" width="100" height="40" as="geometry" />
        </mxCell>
        <mxCell id="D8C9LuhSPpIgvyYXJX8X-17" value="Ofrecer" style="shape=rhombus;perimeter=rhombusPerimeter;whiteSpace=wrap;html=1;align=center;" parent="1" vertex="1">
          <mxGeometry x="520" y="520" width="80" height="40" as="geometry" />
        </mxCell>
        <mxCell id="D8C9LuhSPpIgvyYXJX8X-18" value="" style="endArrow=none;html=1;rounded=0;exitX=0.5;exitY=1;exitDx=0;exitDy=0;entryX=0.5;entryY=0;entryDx=0;entryDy=0;" parent="1" source="v3IGhkPPJmsEX30BA1BG-1" target="D8C9LuhSPpIgvyYXJX8X-17" edge="1">
          <mxGeometry relative="1" as="geometry">
            <mxPoint x="600" y="440" as="sourcePoint" />
            <mxPoint x="760" y="440" as="targetPoint" />
          </mxGeometry>
        </mxCell>
        <mxCell id="D8C9LuhSPpIgvyYXJX8X-20" value="" style="endArrow=none;html=1;rounded=0;exitX=0;exitY=0.5;exitDx=0;exitDy=0;entryX=1;entryY=0.5;entryDx=0;entryDy=0;" parent="1" source="D8C9LuhSPpIgvyYXJX8X-16" target="D8C9LuhSPpIgvyYXJX8X-17" edge="1">
          <mxGeometry relative="1" as="geometry">
            <mxPoint x="650" y="440" as="sourcePoint" />
            <mxPoint x="810" y="440" as="targetPoint" />
          </mxGeometry>
        </mxCell>
        <mxCell id="D8C9LuhSPpIgvyYXJX8X-21" value="1:N" style="text;html=1;align=center;verticalAlign=middle;resizable=0;points=[];autosize=1;strokeColor=none;fillColor=none;" parent="1" vertex="1">
          <mxGeometry x="560" y="400" width="40" height="30" as="geometry" />
        </mxCell>
        <mxCell id="D8C9LuhSPpIgvyYXJX8X-22" value="1:N" style="text;html=1;align=center;verticalAlign=middle;resizable=0;points=[];autosize=1;strokeColor=none;fillColor=none;" parent="1" vertex="1">
          <mxGeometry x="640" y="510" width="40" height="30" as="geometry" />
        </mxCell>
        <mxCell id="D8C9LuhSPpIgvyYXJX8X-23" value="Grupos" style="whiteSpace=wrap;html=1;align=center;perimeterSpacing=6;" parent="1" vertex="1">
          <mxGeometry x="980" y="520" width="100" height="40" as="geometry" />
        </mxCell>
        <mxCell id="D8C9LuhSPpIgvyYXJX8X-24" value="Contratar" style="shape=rhombus;perimeter=rhombusPerimeter;whiteSpace=wrap;html=1;align=center;" parent="1" vertex="1">
          <mxGeometry x="860" y="520" width="80" height="40" as="geometry" />
        </mxCell>
        <mxCell id="D8C9LuhSPpIgvyYXJX8X-25" value="" style="endArrow=none;html=1;rounded=0;exitX=1;exitY=0.5;exitDx=0;exitDy=0;entryX=0;entryY=0.5;entryDx=0;entryDy=0;" parent="1" source="D8C9LuhSPpIgvyYXJX8X-16" target="D8C9LuhSPpIgvyYXJX8X-24" edge="1">
          <mxGeometry relative="1" as="geometry">
            <mxPoint x="650" y="440" as="sourcePoint" />
            <mxPoint x="810" y="440" as="targetPoint" />
          </mxGeometry>
        </mxCell>
        <mxCell id="D8C9LuhSPpIgvyYXJX8X-26" value="" style="endArrow=none;html=1;rounded=0;exitX=1;exitY=0.5;exitDx=0;exitDy=0;entryX=0.043;entryY=0.492;entryDx=0;entryDy=0;entryPerimeter=0;" parent="1" source="D8C9LuhSPpIgvyYXJX8X-24" target="D8C9LuhSPpIgvyYXJX8X-23" edge="1">
          <mxGeometry relative="1" as="geometry">
            <mxPoint x="650" y="440" as="sourcePoint" />
            <mxPoint x="810" y="440" as="targetPoint" />
          </mxGeometry>
        </mxCell>
        <mxCell id="D8C9LuhSPpIgvyYXJX8X-27" value="1:N" style="text;html=1;align=center;verticalAlign=middle;resizable=0;points=[];autosize=1;strokeColor=none;fillColor=none;" parent="1" vertex="1">
          <mxGeometry x="780" y="510" width="40" height="30" as="geometry" />
        </mxCell>
        <mxCell id="D8C9LuhSPpIgvyYXJX8X-28" value="1:N" style="text;html=1;align=center;verticalAlign=middle;resizable=0;points=[];autosize=1;strokeColor=none;fillColor=none;" parent="1" vertex="1">
          <mxGeometry x="940" y="510" width="40" height="30" as="geometry" />
        </mxCell>
        <mxCell id="D8C9LuhSPpIgvyYXJX8X-34" value="Reservas" style="shape=ext;margin=3;double=1;whiteSpace=wrap;html=1;align=center;" parent="1" vertex="1">
          <mxGeometry x="980" y="620" width="100" height="40" as="geometry" />
        </mxCell>
        <mxCell id="D8C9LuhSPpIgvyYXJX8X-35" value="" style="endArrow=none;html=1;rounded=0;entryX=0.5;entryY=1;entryDx=0;entryDy=0;exitX=0;exitY=0.5;exitDx=0;exitDy=0;" parent="1" source="D8C9LuhSPpIgvyYXJX8X-34" target="D8C9LuhSPpIgvyYXJX8X-24" edge="1">
          <mxGeometry relative="1" as="geometry">
            <mxPoint x="650" y="440" as="sourcePoint" />
            <mxPoint x="810" y="440" as="targetPoint" />
            <Array as="points">
              <mxPoint x="900" y="640" />
            </Array>
          </mxGeometry>
        </mxCell>
        <mxCell id="D8C9LuhSPpIgvyYXJX8X-36" value="1:N" style="text;html=1;align=center;verticalAlign=middle;resizable=0;points=[];autosize=1;strokeColor=none;fillColor=none;" parent="1" vertex="1">
          <mxGeometry x="940" y="640" width="40" height="30" as="geometry" />
        </mxCell>
        <mxCell id="D8C9LuhSPpIgvyYXJX8X-37" value="1:N" style="text;html=1;align=center;verticalAlign=middle;resizable=0;points=[];autosize=1;strokeColor=none;fillColor=none;" parent="1" vertex="1">
          <mxGeometry x="940" y="610" width="40" height="30" as="geometry" />
        </mxCell>
        <mxCell id="D8C9LuhSPpIgvyYXJX8X-38" value="1:1" style="text;html=1;align=center;verticalAlign=middle;resizable=0;points=[];autosize=1;strokeColor=none;fillColor=none;" parent="1" vertex="1">
          <mxGeometry x="940" y="540" width="40" height="30" as="geometry" />
        </mxCell>
        <mxCell id="D8C9LuhSPpIgvyYXJX8X-39" value="1:N" style="text;html=1;align=center;verticalAlign=middle;resizable=0;points=[];autosize=1;strokeColor=none;fillColor=none;" parent="1" vertex="1">
          <mxGeometry x="780" y="540" width="40" height="30" as="geometry" />
        </mxCell>
        <mxCell id="D8C9LuhSPpIgvyYXJX8X-40" value="Formar" style="shape=rhombus;perimeter=rhombusPerimeter;whiteSpace=wrap;html=1;align=center;" parent="1" vertex="1">
          <mxGeometry x="995" y="440" width="70" height="40" as="geometry" />
        </mxCell>
        <mxCell id="D8C9LuhSPpIgvyYXJX8X-41" value="Clientes" style="whiteSpace=wrap;html=1;align=center;" parent="1" vertex="1">
          <mxGeometry x="980" y="360" width="100" height="40" as="geometry" />
        </mxCell>
        <mxCell id="D8C9LuhSPpIgvyYXJX8X-44" value="" style="endArrow=none;html=1;rounded=0;exitX=0.5;exitY=1;exitDx=0;exitDy=0;entryX=0.5;entryY=0;entryDx=0;entryDy=0;" parent="1" source="D8C9LuhSPpIgvyYXJX8X-41" target="D8C9LuhSPpIgvyYXJX8X-40" edge="1">
          <mxGeometry relative="1" as="geometry">
            <mxPoint x="1140" y="410" as="sourcePoint" />
            <mxPoint x="1300" y="410" as="targetPoint" />
          </mxGeometry>
        </mxCell>
        <mxCell id="D8C9LuhSPpIgvyYXJX8X-45" value="" style="endArrow=none;html=1;rounded=0;exitX=0.5;exitY=1;exitDx=0;exitDy=0;entryX=0.496;entryY=0.138;entryDx=0;entryDy=0;entryPerimeter=0;" parent="1" source="D8C9LuhSPpIgvyYXJX8X-40" target="D8C9LuhSPpIgvyYXJX8X-23" edge="1">
          <mxGeometry relative="1" as="geometry">
            <mxPoint x="1140" y="410" as="sourcePoint" />
            <mxPoint x="1300" y="410" as="targetPoint" />
          </mxGeometry>
        </mxCell>
        <mxCell id="D8C9LuhSPpIgvyYXJX8X-46" value="1:N" style="text;html=1;align=center;verticalAlign=middle;resizable=0;points=[];autosize=1;strokeColor=none;fillColor=none;" parent="1" vertex="1">
          <mxGeometry x="1030" y="490" width="40" height="30" as="geometry" />
        </mxCell>
        <mxCell id="D8C9LuhSPpIgvyYXJX8X-47" value="1:N" style="text;html=1;align=center;verticalAlign=middle;resizable=0;points=[];autosize=1;strokeColor=none;fillColor=none;" parent="1" vertex="1">
          <mxGeometry x="1030" y="400" width="40" height="30" as="geometry" />
        </mxCell>
        <mxCell id="D8C9LuhSPpIgvyYXJX8X-48" value="Residir" style="shape=rhombus;perimeter=rhombusPerimeter;whiteSpace=wrap;html=1;align=center;" parent="1" vertex="1">
          <mxGeometry x="885" y="290" width="70" height="40" as="geometry" />
        </mxCell>
        <mxCell id="D8C9LuhSPpIgvyYXJX8X-49" value="" style="endArrow=none;html=1;rounded=0;exitX=0;exitY=0;exitDx=0;exitDy=0;entryX=1;entryY=1;entryDx=0;entryDy=0;" parent="1" source="D8C9LuhSPpIgvyYXJX8X-48" target="v3IGhkPPJmsEX30BA1BG-25" edge="1">
          <mxGeometry relative="1" as="geometry">
            <mxPoint x="1140" y="410" as="sourcePoint" />
            <mxPoint x="1300" y="410" as="targetPoint" />
          </mxGeometry>
        </mxCell>
        <mxCell id="D8C9LuhSPpIgvyYXJX8X-50" value="" style="endArrow=none;html=1;rounded=0;exitX=1;exitY=1;exitDx=0;exitDy=0;entryX=0.5;entryY=0;entryDx=0;entryDy=0;" parent="1" source="D8C9LuhSPpIgvyYXJX8X-48" target="D8C9LuhSPpIgvyYXJX8X-41" edge="1">
          <mxGeometry relative="1" as="geometry">
            <mxPoint x="1140" y="410" as="sourcePoint" />
            <mxPoint x="1300" y="410" as="targetPoint" />
          </mxGeometry>
        </mxCell>
        <mxCell id="D8C9LuhSPpIgvyYXJX8X-51" value="1:N" style="text;html=1;align=center;verticalAlign=middle;resizable=0;points=[];autosize=1;strokeColor=none;fillColor=none;" parent="1" vertex="1">
          <mxGeometry x="1030" y="330" width="40" height="30" as="geometry" />
        </mxCell>
        <mxCell id="D8C9LuhSPpIgvyYXJX8X-52" value="1:1" style="text;html=1;align=center;verticalAlign=middle;resizable=0;points=[];autosize=1;strokeColor=none;fillColor=none;" parent="1" vertex="1">
          <mxGeometry x="815" y="220" width="40" height="30" as="geometry" />
        </mxCell>
        <mxCell id="D8C9LuhSPpIgvyYXJX8X-53" value="Seguros" style="whiteSpace=wrap;html=1;align=center;" parent="1" vertex="1">
          <mxGeometry x="790" y="360" width="100" height="40" as="geometry" />
        </mxCell>
        <mxCell id="D8C9LuhSPpIgvyYXJX8X-54" value="Asegurar" style="shape=rhombus;perimeter=rhombusPerimeter;whiteSpace=wrap;html=1;align=center;" parent="1" vertex="1">
          <mxGeometry x="890" y="420" width="80" height="40" as="geometry" />
        </mxCell>
        <mxCell id="D8C9LuhSPpIgvyYXJX8X-55" value="Contratar" style="shape=rhombus;perimeter=rhombusPerimeter;whiteSpace=wrap;html=1;align=center;" parent="1" vertex="1">
          <mxGeometry x="690" y="360" width="70" height="40" as="geometry" />
        </mxCell>
        <mxCell id="D8C9LuhSPpIgvyYXJX8X-56" value="" style="endArrow=none;html=1;rounded=0;exitX=1;exitY=0.5;exitDx=0;exitDy=0;entryX=0;entryY=0.5;entryDx=0;entryDy=0;" parent="1" source="v3IGhkPPJmsEX30BA1BG-1" target="D8C9LuhSPpIgvyYXJX8X-55" edge="1">
          <mxGeometry relative="1" as="geometry">
            <mxPoint x="560" y="410" as="sourcePoint" />
            <mxPoint x="720" y="410" as="targetPoint" />
          </mxGeometry>
        </mxCell>
        <mxCell id="D8C9LuhSPpIgvyYXJX8X-57" value="" style="endArrow=none;html=1;rounded=0;exitX=1;exitY=0.5;exitDx=0;exitDy=0;entryX=0;entryY=0.5;entryDx=0;entryDy=0;" parent="1" source="D8C9LuhSPpIgvyYXJX8X-55" target="D8C9LuhSPpIgvyYXJX8X-53" edge="1">
          <mxGeometry relative="1" as="geometry">
            <mxPoint x="560" y="410" as="sourcePoint" />
            <mxPoint x="720" y="410" as="targetPoint" />
          </mxGeometry>
        </mxCell>
        <mxCell id="D8C9LuhSPpIgvyYXJX8X-58" value="1:N" style="text;html=1;align=center;verticalAlign=middle;resizable=0;points=[];autosize=1;strokeColor=none;fillColor=none;" parent="1" vertex="1">
          <mxGeometry x="750" y="350" width="40" height="30" as="geometry" />
        </mxCell>
        <mxCell id="D8C9LuhSPpIgvyYXJX8X-59" value="1:1" style="text;html=1;align=center;verticalAlign=middle;resizable=0;points=[];autosize=1;strokeColor=none;fillColor=none;" parent="1" vertex="1">
          <mxGeometry x="610" y="350" width="40" height="30" as="geometry" />
        </mxCell>
        <mxCell id="D8C9LuhSPpIgvyYXJX8X-60" value="" style="endArrow=none;html=1;rounded=0;entryX=1;entryY=0.5;entryDx=0;entryDy=0;exitX=0.5;exitY=0;exitDx=0;exitDy=0;" parent="1" source="D8C9LuhSPpIgvyYXJX8X-54" target="D8C9LuhSPpIgvyYXJX8X-53" edge="1">
          <mxGeometry relative="1" as="geometry">
            <mxPoint x="560" y="410" as="sourcePoint" />
            <mxPoint x="720" y="410" as="targetPoint" />
            <Array as="points">
              <mxPoint x="930" y="380" />
            </Array>
          </mxGeometry>
        </mxCell>
        <mxCell id="D8C9LuhSPpIgvyYXJX8X-61" value="" style="endArrow=none;html=1;rounded=0;entryX=0.5;entryY=1;entryDx=0;entryDy=0;exitX=0.339;exitY=0.09;exitDx=0;exitDy=0;exitPerimeter=0;" parent="1" source="D8C9LuhSPpIgvyYXJX8X-23" target="D8C9LuhSPpIgvyYXJX8X-54" edge="1">
          <mxGeometry relative="1" as="geometry">
            <mxPoint x="560" y="410" as="sourcePoint" />
            <mxPoint x="720" y="410" as="targetPoint" />
          </mxGeometry>
        </mxCell>
        <mxCell id="D8C9LuhSPpIgvyYXJX8X-62" value="1:N" style="text;html=1;align=center;verticalAlign=middle;resizable=0;points=[];autosize=1;" parent="1" vertex="1">
          <mxGeometry x="990" y="490" width="40" height="30" as="geometry" />
        </mxCell>
        <mxCell id="D8C9LuhSPpIgvyYXJX8X-63" value="1:1" style="text;html=1;align=center;verticalAlign=middle;resizable=0;points=[];autosize=1;" parent="1" vertex="1">
          <mxGeometry x="890" y="350" width="40" height="30" as="geometry" />
        </mxCell>
        <mxCell id="D8C9LuhSPpIgvyYXJX8X-64" value="Empresa Vehícu" style="whiteSpace=wrap;html=1;align=center;" parent="1" vertex="1">
          <mxGeometry x="147.5" y="260" width="100" height="40" as="geometry" />
        </mxCell>
        <mxCell id="D8C9LuhSPpIgvyYXJX8X-65" value="Alquiler" style="shape=rhombus;perimeter=rhombusPerimeter;whiteSpace=wrap;html=1;align=center;" parent="1" vertex="1">
          <mxGeometry x="327.5" y="255" width="70" height="50" as="geometry" />
        </mxCell>
        <mxCell id="D8C9LuhSPpIgvyYXJX8X-66" value="" style="endArrow=none;html=1;rounded=0;exitX=1;exitY=0.5;exitDx=0;exitDy=0;entryX=0;entryY=0.5;entryDx=0;entryDy=0;" parent="1" source="D8C9LuhSPpIgvyYXJX8X-64" target="D8C9LuhSPpIgvyYXJX8X-65" edge="1">
          <mxGeometry relative="1" as="geometry">
            <mxPoint x="427.5" y="410" as="sourcePoint" />
            <mxPoint x="587.5" y="410" as="targetPoint" />
          </mxGeometry>
        </mxCell>
        <mxCell id="D8C9LuhSPpIgvyYXJX8X-68" value="" style="endArrow=none;html=1;rounded=0;exitX=1;exitY=0.5;exitDx=0;exitDy=0;entryX=0.25;entryY=0;entryDx=0;entryDy=0;fontColor=#FF3333;" parent="1" source="D8C9LuhSPpIgvyYXJX8X-65" target="v3IGhkPPJmsEX30BA1BG-1" edge="1">
          <mxGeometry relative="1" as="geometry">
            <mxPoint x="560" y="410" as="sourcePoint" />
            <mxPoint x="720" y="410" as="targetPoint" />
            <Array as="points">
              <mxPoint x="535" y="280" />
            </Array>
          </mxGeometry>
        </mxCell>
        <mxCell id="D8C9LuhSPpIgvyYXJX8X-69" value="1:N" style="text;html=1;align=center;verticalAlign=middle;resizable=0;points=[];autosize=1;" parent="1" vertex="1">
          <mxGeometry x="500" y="330" width="40" height="30" as="geometry" />
        </mxCell>
        <mxCell id="D8C9LuhSPpIgvyYXJX8X-70" value="1:N" style="text;html=1;align=center;verticalAlign=middle;resizable=0;points=[];autosize=1;" parent="1" vertex="1">
          <mxGeometry x="247.5" y="280" width="40" height="30" as="geometry" />
        </mxCell>
        <mxCell id="D8C9LuhSPpIgvyYXJX8X-72" value="Vehículos" style="whiteSpace=wrap;html=1;align=center;" parent="1" vertex="1">
          <mxGeometry x="312.5" y="160" width="100" height="40" as="geometry" />
        </mxCell>
        <mxCell id="D8C9LuhSPpIgvyYXJX8X-73" value="" style="endArrow=none;html=1;rounded=0;entryX=0.5;entryY=0;entryDx=0;entryDy=0;exitX=0.5;exitY=1;exitDx=0;exitDy=0;" parent="1" source="D8C9LuhSPpIgvyYXJX8X-72" target="D8C9LuhSPpIgvyYXJX8X-65" edge="1">
          <mxGeometry relative="1" as="geometry">
            <mxPoint x="357.5" y="210" as="sourcePoint" />
            <mxPoint x="587.5" y="240" as="targetPoint" />
          </mxGeometry>
        </mxCell>
        <mxCell id="D8C9LuhSPpIgvyYXJX8X-74" value="Poseer" style="shape=rhombus;perimeter=rhombusPerimeter;whiteSpace=wrap;html=1;align=center;" parent="1" vertex="1">
          <mxGeometry x="157.5" y="160" width="80" height="40" as="geometry" />
        </mxCell>
        <mxCell id="D8C9LuhSPpIgvyYXJX8X-75" value="" style="endArrow=none;html=1;rounded=0;exitX=0.5;exitY=0;exitDx=0;exitDy=0;entryX=0.5;entryY=1;entryDx=0;entryDy=0;" parent="1" source="D8C9LuhSPpIgvyYXJX8X-64" target="D8C9LuhSPpIgvyYXJX8X-74" edge="1">
          <mxGeometry relative="1" as="geometry">
            <mxPoint x="427.5" y="240" as="sourcePoint" />
            <mxPoint x="587.5" y="240" as="targetPoint" />
          </mxGeometry>
        </mxCell>
        <mxCell id="D8C9LuhSPpIgvyYXJX8X-76" value="" style="endArrow=none;html=1;rounded=0;exitX=1;exitY=0.5;exitDx=0;exitDy=0;entryX=0;entryY=0.5;entryDx=0;entryDy=0;" parent="1" source="D8C9LuhSPpIgvyYXJX8X-74" target="D8C9LuhSPpIgvyYXJX8X-72" edge="1">
          <mxGeometry relative="1" as="geometry">
            <mxPoint x="427.5" y="240" as="sourcePoint" />
            <mxPoint x="587.5" y="240" as="targetPoint" />
          </mxGeometry>
        </mxCell>
        <mxCell id="D8C9LuhSPpIgvyYXJX8X-77" value="1:N" style="text;html=1;align=center;verticalAlign=middle;resizable=0;points=[];autosize=1;strokeColor=none;fillColor=none;" parent="1" vertex="1">
          <mxGeometry x="277.5" y="150" width="40" height="30" as="geometry" />
        </mxCell>
        <mxCell id="D8C9LuhSPpIgvyYXJX8X-78" value="1:1" style="text;html=1;align=center;verticalAlign=middle;resizable=0;points=[];autosize=1;strokeColor=none;fillColor=none;" parent="1" vertex="1">
          <mxGeometry x="197.5" y="230" width="40" height="30" as="geometry" />
        </mxCell>
        <mxCell id="D8C9LuhSPpIgvyYXJX8X-79" value="1:N" style="text;html=1;align=center;verticalAlign=middle;resizable=0;points=[];autosize=1;" parent="1" vertex="1">
          <mxGeometry x="367.5" y="200" width="40" height="30" as="geometry" />
        </mxCell>
        <mxCell id="D8C9LuhSPpIgvyYXJX8X-80" value="1:N" style="text;html=1;align=center;verticalAlign=middle;resizable=0;points=[];autosize=1;" parent="1" vertex="1">
          <mxGeometry x="530" y="330" width="40" height="30" as="geometry" />
        </mxCell>
        <mxCell id="D8C9LuhSPpIgvyYXJX8X-82" value="1:1" style="text;html=1;align=center;verticalAlign=middle;resizable=0;points=[];autosize=1;" parent="1" vertex="1">
          <mxGeometry x="800" y="330" width="40" height="30" as="geometry" />
        </mxCell>
        <mxCell id="D8C9LuhSPpIgvyYXJX8X-83" value="1:N" style="text;html=1;align=center;verticalAlign=middle;resizable=0;points=[];autosize=1;" parent="1" vertex="1">
          <mxGeometry x="412.5" y="150" width="40" height="30" as="geometry" />
        </mxCell>
        <mxCell id="D8C9LuhSPpIgvyYXJX8X-84" value="Asegurar" style="shape=rhombus;perimeter=rhombusPerimeter;whiteSpace=wrap;html=1;align=center;" parent="1" vertex="1">
          <mxGeometry x="640" y="275" width="80" height="40" as="geometry" />
        </mxCell>
        <mxCell id="D8C9LuhSPpIgvyYXJX8X-85" value="" style="endArrow=none;html=1;rounded=0;exitX=0.5;exitY=0;exitDx=0;exitDy=0;entryX=1;entryY=0.5;entryDx=0;entryDy=0;" parent="1" source="D8C9LuhSPpIgvyYXJX8X-84" target="D8C9LuhSPpIgvyYXJX8X-72" edge="1">
          <mxGeometry relative="1" as="geometry">
            <mxPoint x="560" y="240" as="sourcePoint" />
            <mxPoint x="720" y="240" as="targetPoint" />
            <Array as="points">
              <mxPoint x="680" y="180" />
            </Array>
          </mxGeometry>
        </mxCell>
        <mxCell id="D8C9LuhSPpIgvyYXJX8X-86" value="" style="endArrow=none;html=1;rounded=0;exitX=1;exitY=0.5;exitDx=0;exitDy=0;entryX=0.5;entryY=0;entryDx=0;entryDy=0;" parent="1" source="D8C9LuhSPpIgvyYXJX8X-84" target="D8C9LuhSPpIgvyYXJX8X-53" edge="1">
          <mxGeometry relative="1" as="geometry">
            <mxPoint x="560" y="240" as="sourcePoint" />
            <mxPoint x="720" y="240" as="targetPoint" />
            <Array as="points">
              <mxPoint x="840" y="295" />
            </Array>
          </mxGeometry>
        </mxCell>
        <mxCell id="L6LiimmHA8KOSPb93LkU-1" value="Agencias" style="whiteSpace=wrap;html=1;align=center;" vertex="1" parent="1">
          <mxGeometry x="510" y="680" width="100" height="40" as="geometry" />
        </mxCell>
        <mxCell id="L6LiimmHA8KOSPb93LkU-2" value="" style="endArrow=none;html=1;rounded=0;exitX=0.5;exitY=0;exitDx=0;exitDy=0;entryX=0.5;entryY=1;entryDx=0;entryDy=0;" edge="1" parent="1" source="L6LiimmHA8KOSPb93LkU-1" target="D8C9LuhSPpIgvyYXJX8X-17">
          <mxGeometry relative="1" as="geometry">
            <mxPoint x="480" y="510" as="sourcePoint" />
            <mxPoint x="640" y="510" as="targetPoint" />
          </mxGeometry>
        </mxCell>
        <mxCell id="L6LiimmHA8KOSPb93LkU-3" value="Gestionar" style="shape=rhombus;perimeter=rhombusPerimeter;whiteSpace=wrap;html=1;align=center;" vertex="1" parent="1">
          <mxGeometry x="790" y="680" width="95" height="40" as="geometry" />
        </mxCell>
        <mxCell id="L6LiimmHA8KOSPb93LkU-4" value="1:N" style="text;html=1;align=center;verticalAlign=middle;resizable=0;points=[];autosize=1;strokeColor=none;fillColor=none;" vertex="1" parent="1">
          <mxGeometry x="640" y="540" width="40" height="30" as="geometry" />
        </mxCell>
        <mxCell id="L6LiimmHA8KOSPb93LkU-5" value="1:N" style="text;html=1;align=center;verticalAlign=middle;resizable=0;points=[];autosize=1;strokeColor=none;fillColor=none;" vertex="1" parent="1">
          <mxGeometry x="560" y="650" width="40" height="30" as="geometry" />
        </mxCell>
        <mxCell id="L6LiimmHA8KOSPb93LkU-6" value="" style="endArrow=none;html=1;rounded=0;exitX=1;exitY=0.5;exitDx=0;exitDy=0;entryX=0;entryY=0.5;entryDx=0;entryDy=0;" edge="1" parent="1" source="L6LiimmHA8KOSPb93LkU-1" target="L6LiimmHA8KOSPb93LkU-3">
          <mxGeometry relative="1" as="geometry">
            <mxPoint x="530" y="510" as="sourcePoint" />
            <mxPoint x="690" y="510" as="targetPoint" />
          </mxGeometry>
        </mxCell>
        <mxCell id="L6LiimmHA8KOSPb93LkU-7" value="" style="endArrow=none;html=1;rounded=0;exitX=1;exitY=0.5;exitDx=0;exitDy=0;entryX=0.5;entryY=1;entryDx=0;entryDy=0;" edge="1" parent="1" source="L6LiimmHA8KOSPb93LkU-3" target="D8C9LuhSPpIgvyYXJX8X-34">
          <mxGeometry relative="1" as="geometry">
            <mxPoint x="530" y="510" as="sourcePoint" />
            <mxPoint x="690" y="510" as="targetPoint" />
            <Array as="points">
              <mxPoint x="1030" y="700" />
            </Array>
          </mxGeometry>
        </mxCell>
        <mxCell id="L6LiimmHA8KOSPb93LkU-8" value="1:N" style="text;html=1;align=center;verticalAlign=middle;resizable=0;points=[];autosize=1;" vertex="1" parent="1">
          <mxGeometry x="1030" y="660" width="40" height="30" as="geometry" />
        </mxCell>
        <mxCell id="L6LiimmHA8KOSPb93LkU-9" value="1:1" style="text;html=1;align=center;verticalAlign=middle;resizable=0;points=[];autosize=1;" vertex="1" parent="1">
          <mxGeometry x="610" y="670" width="40" height="30" as="geometry" />
        </mxCell>
        <mxCell id="L6LiimmHA8KOSPb93LkU-11" value="Contactar" style="shape=rhombus;perimeter=rhombusPerimeter;whiteSpace=wrap;html=1;align=center;" vertex="1" parent="1">
          <mxGeometry x="735" y="600" width="80" height="40" as="geometry" />
        </mxCell>
        <mxCell id="L6LiimmHA8KOSPb93LkU-12" value="" style="endArrow=none;html=1;rounded=0;exitX=0.5;exitY=0;exitDx=0;exitDy=0;entryX=0;entryY=0.5;entryDx=0;entryDy=0;" edge="1" parent="1" source="L6LiimmHA8KOSPb93LkU-1" target="L6LiimmHA8KOSPb93LkU-11">
          <mxGeometry relative="1" as="geometry">
            <mxPoint x="530" y="510" as="sourcePoint" />
            <mxPoint x="690" y="510" as="targetPoint" />
            <Array as="points">
              <mxPoint x="610" y="620" />
            </Array>
          </mxGeometry>
        </mxCell>
        <mxCell id="L6LiimmHA8KOSPb93LkU-13" value="" style="endArrow=none;html=1;rounded=0;exitX=1;exitY=0.5;exitDx=0;exitDy=0;" edge="1" parent="1" source="L6LiimmHA8KOSPb93LkU-11">
          <mxGeometry relative="1" as="geometry">
            <mxPoint x="530" y="510" as="sourcePoint" />
            <mxPoint x="1029" y="560" as="targetPoint" />
            <Array as="points">
              <mxPoint x="1030" y="610" />
            </Array>
          </mxGeometry>
        </mxCell>
        <mxCell id="L6LiimmHA8KOSPb93LkU-14" value="1:1" style="text;html=1;align=center;verticalAlign=middle;resizable=0;points=[];autosize=1;" vertex="1" parent="1">
          <mxGeometry x="520" y="650" width="40" height="30" as="geometry" />
        </mxCell>
        <mxCell id="L6LiimmHA8KOSPb93LkU-15" value="1:N" style="text;html=1;align=center;verticalAlign=middle;resizable=0;points=[];autosize=1;" vertex="1" parent="1">
          <mxGeometry x="990" y="560" width="40" height="30" as="geometry" />
        </mxCell>
        <mxCell id="L6LiimmHA8KOSPb93LkU-16" value="Alojamientos" style="whiteSpace=wrap;html=1;align=center;" vertex="1" parent="1">
          <mxGeometry x="675" y="440" width="100" height="40" as="geometry" />
        </mxCell>
        <mxCell id="L6LiimmHA8KOSPb93LkU-18" value="" style="endArrow=none;html=1;rounded=0;entryX=0.5;entryY=1;entryDx=0;entryDy=0;exitX=0.5;exitY=0;exitDx=0;exitDy=0;" edge="1" parent="1" source="L6LiimmHA8KOSPb93LkU-16" target="D8C9LuhSPpIgvyYXJX8X-55">
          <mxGeometry relative="1" as="geometry">
            <mxPoint x="530" y="440" as="sourcePoint" />
            <mxPoint x="690" y="440" as="targetPoint" />
          </mxGeometry>
        </mxCell>
        <mxCell id="L6LiimmHA8KOSPb93LkU-19" value="Ocupan" style="shape=rhombus;perimeter=rhombusPerimeter;whiteSpace=wrap;html=1;align=center;" vertex="1" parent="1">
          <mxGeometry x="800" y="440" width="90" height="40" as="geometry" />
        </mxCell>
        <mxCell id="L6LiimmHA8KOSPb93LkU-20" value="" style="endArrow=none;html=1;rounded=0;exitX=1;exitY=0.5;exitDx=0;exitDy=0;entryX=0;entryY=0.5;entryDx=0;entryDy=0;fillColor=#dae8fc;strokeColor=#6c8ebf;" edge="1" parent="1" source="L6LiimmHA8KOSPb93LkU-16" target="L6LiimmHA8KOSPb93LkU-19">
          <mxGeometry relative="1" as="geometry">
            <mxPoint x="530" y="450" as="sourcePoint" />
            <mxPoint x="690" y="450" as="targetPoint" />
          </mxGeometry>
        </mxCell>
        <mxCell id="L6LiimmHA8KOSPb93LkU-22" value="1:1" style="text;html=1;align=center;verticalAlign=middle;resizable=0;points=[];autosize=1;strokeColor=none;fillColor=none;" vertex="1" parent="1">
          <mxGeometry x="775" y="430" width="40" height="30" as="geometry" />
        </mxCell>
        <mxCell id="L6LiimmHA8KOSPb93LkU-23" value="1:N" style="text;html=1;align=center;verticalAlign=middle;resizable=0;points=[];autosize=1;" vertex="1" parent="1">
          <mxGeometry x="940" y="590" width="40" height="30" as="geometry" />
        </mxCell>
        <mxCell id="L6LiimmHA8KOSPb93LkU-24" value="" style="endArrow=none;html=1;rounded=0;exitX=0.5;exitY=1;exitDx=0;exitDy=0;entryX=0;entryY=0.5;entryDx=0;entryDy=0;" edge="1" parent="1" source="L6LiimmHA8KOSPb93LkU-19" target="D8C9LuhSPpIgvyYXJX8X-34">
          <mxGeometry relative="1" as="geometry">
            <mxPoint x="530" y="450" as="sourcePoint" />
            <mxPoint x="690" y="450" as="targetPoint" />
            <Array as="points">
              <mxPoint x="845" y="590" />
            </Array>
          </mxGeometry>
        </mxCell>
        <mxCell id="L6LiimmHA8KOSPb93LkU-25" value="Equipamiento" style="rounded=1;arcSize=10;whiteSpace=wrap;html=1;align=center;" vertex="1" parent="1">
          <mxGeometry x="367.5" y="620" width="100" height="40" as="geometry" />
        </mxCell>
        <mxCell id="L6LiimmHA8KOSPb93LkU-26" value="Poseer" style="shape=rhombus;perimeter=rhombusPerimeter;whiteSpace=wrap;html=1;align=center;" vertex="1" parent="1">
          <mxGeometry x="377.5" y="505" width="80" height="40" as="geometry" />
        </mxCell>
        <mxCell id="L6LiimmHA8KOSPb93LkU-27" value="" style="endArrow=none;html=1;rounded=0;entryX=0.25;entryY=1;entryDx=0;entryDy=0;exitX=0.5;exitY=0;exitDx=0;exitDy=0;" edge="1" parent="1" source="L6LiimmHA8KOSPb93LkU-26" target="v3IGhkPPJmsEX30BA1BG-1">
          <mxGeometry relative="1" as="geometry">
            <mxPoint x="530" y="450" as="sourcePoint" />
            <mxPoint x="690" y="450" as="targetPoint" />
            <Array as="points">
              <mxPoint x="418" y="440" />
              <mxPoint x="535" y="440" />
            </Array>
          </mxGeometry>
        </mxCell>
        <mxCell id="L6LiimmHA8KOSPb93LkU-28" value="" style="endArrow=none;html=1;rounded=0;exitX=0.5;exitY=1;exitDx=0;exitDy=0;entryX=0.5;entryY=0;entryDx=0;entryDy=0;" edge="1" parent="1" source="L6LiimmHA8KOSPb93LkU-26" target="L6LiimmHA8KOSPb93LkU-25">
          <mxGeometry relative="1" as="geometry">
            <mxPoint x="530" y="450" as="sourcePoint" />
            <mxPoint x="690" y="450" as="targetPoint" />
          </mxGeometry>
        </mxCell>
        <mxCell id="L6LiimmHA8KOSPb93LkU-29" value="1:N" style="text;html=1;align=center;verticalAlign=middle;resizable=0;points=[];autosize=1;" vertex="1" parent="1">
          <mxGeometry x="417.5" y="590" width="40" height="30" as="geometry" />
        </mxCell>
        <mxCell id="L6LiimmHA8KOSPb93LkU-30" value="1:1" style="text;html=1;align=center;verticalAlign=middle;resizable=0;points=[];autosize=1;" vertex="1" parent="1">
          <mxGeometry x="490" y="400" width="40" height="30" as="geometry" />
        </mxCell>
        <mxCell id="L6LiimmHA8KOSPb93LkU-31" value="Revisar" style="shape=rhombus;perimeter=rhombusPerimeter;whiteSpace=wrap;html=1;align=center;" vertex="1" parent="1">
          <mxGeometry x="236.25" y="615" width="87.5" height="50" as="geometry" />
        </mxCell>
        <mxCell id="L6LiimmHA8KOSPb93LkU-32" value="F.Revisión" style="shape=ext;margin=3;double=1;whiteSpace=wrap;html=1;align=center;" vertex="1" parent="1">
          <mxGeometry x="80" y="620" width="100" height="40" as="geometry" />
        </mxCell>
        <mxCell id="L6LiimmHA8KOSPb93LkU-33" value="" style="endArrow=none;html=1;rounded=0;exitX=1;exitY=0.5;exitDx=0;exitDy=0;entryX=0;entryY=0.5;entryDx=0;entryDy=0;" edge="1" parent="1" source="L6LiimmHA8KOSPb93LkU-32" target="L6LiimmHA8KOSPb93LkU-31">
          <mxGeometry relative="1" as="geometry">
            <mxPoint x="530" y="450" as="sourcePoint" />
            <mxPoint x="690" y="450" as="targetPoint" />
          </mxGeometry>
        </mxCell>
        <mxCell id="L6LiimmHA8KOSPb93LkU-34" value="" style="endArrow=none;html=1;rounded=0;exitX=1;exitY=0.5;exitDx=0;exitDy=0;entryX=0;entryY=0.5;entryDx=0;entryDy=0;" edge="1" parent="1" source="L6LiimmHA8KOSPb93LkU-31" target="L6LiimmHA8KOSPb93LkU-25">
          <mxGeometry relative="1" as="geometry">
            <mxPoint x="530" y="450" as="sourcePoint" />
            <mxPoint x="690" y="450" as="targetPoint" />
          </mxGeometry>
        </mxCell>
        <mxCell id="L6LiimmHA8KOSPb93LkU-35" value="" style="endArrow=none;html=1;rounded=0;exitX=0.5;exitY=1;exitDx=0;exitDy=0;entryX=0.5;entryY=0;entryDx=0;entryDy=0;" edge="1" parent="1" source="v3IGhkPPJmsEX30BA1BG-13" target="L6LiimmHA8KOSPb93LkU-31">
          <mxGeometry relative="1" as="geometry">
            <mxPoint x="530" y="450" as="sourcePoint" />
            <mxPoint x="690" y="450" as="targetPoint" />
          </mxGeometry>
        </mxCell>
        <mxCell id="L6LiimmHA8KOSPb93LkU-36" value="1:N" style="text;html=1;align=center;verticalAlign=middle;resizable=0;points=[];autosize=1;" vertex="1" parent="1">
          <mxGeometry x="280" y="550" width="40" height="30" as="geometry" />
        </mxCell>
        <mxCell id="L6LiimmHA8KOSPb93LkU-38" value="1:N" style="text;html=1;align=center;verticalAlign=middle;resizable=0;points=[];autosize=1;" vertex="1" parent="1">
          <mxGeometry x="327.5" y="610" width="40" height="30" as="geometry" />
        </mxCell>
      </root>
    </mxGraphModel>
  </diagram>
</mxfile>
